<?xml version="1.0" encoding="UTF-8"?>
<svg width="228px" height="228px" viewBox="0 0 228 228" version="1.1" xmlns="http://www.w3.org/2000/svg" xmlns:xlink="http://www.w3.org/1999/xlink">
    <!-- Generator: Sketch 49.2 (51160) - http://www.bohemiancoding.com/sketch -->
    <title>Group 17</title>
    <desc>Created with Sketch.</desc>
    <defs></defs>
    <g id="Page-1" stroke="none" stroke-width="1" fill="none" fill-rule="evenodd">
        <g id="Desktop-HD" transform="translate(-335.000000, -2719.000000)" fill="#E6D7C4">
            <g id="Group-2-Copy-6" transform="translate(240.000000, 2603.000000)">
                <g id="Group-17" transform="translate(209.000000, 230.000000) rotate(-45.000000) translate(-209.000000, -230.000000) translate(108.000000, 129.000000)">
                    <circle id="Oval-4" transform="translate(101.000000, 101.000000) rotate(-45.000000) translate(-101.000000, -101.000000) " cx="101" cy="101" r="44.8888889"></circle>
                    <rect id="Rectangle-4" x="97.4930556" y="0" width="7.01388889" height="42.0833333"></rect>
                    <rect id="Rectangle-4-Copy" x="97.4930556" y="159.916667" width="7.01388889" height="42.0833333"></rect>
                    <rect id="Rectangle-4" transform="translate(180.958333, 101.000000) rotate(-270.000000) translate(-180.958333, -101.000000) " x="177.451389" y="79.9583333" width="7.01388889" height="42.0833333"></rect>
                    <rect id="Rectangle-4-Copy" transform="translate(21.041667, 101.000000) rotate(-270.000000) translate(-21.041667, -101.000000) " x="17.5347222" y="79.9583333" width="7.01388889" height="42.0833333"></rect>
                    <rect id="Rectangle-4" transform="translate(162.002691, 39.997309) rotate(-315.000000) translate(-162.002691, -39.997309) " x="158.495747" y="12.6431421" width="7.01388889" height="54.7083333"></rect>
                    <rect id="Rectangle-4-Copy" transform="translate(39.997309, 162.002691) rotate(-315.000000) translate(-39.997309, -162.002691) " x="36.4903643" y="134.648525" width="7.01388889" height="54.7083333"></rect>
                    <rect id="Rectangle-4" transform="translate(162.002691, 162.002691) rotate(-225.000000) translate(-162.002691, -162.002691) " x="158.495747" y="134.648525" width="7.01388889" height="54.7083333"></rect>
                    <rect id="Rectangle-4-Copy" transform="translate(39.997309, 39.997309) rotate(-225.000000) translate(-39.997309, -39.997309) " x="36.4903643" y="12.6431421" width="7.01388889" height="54.7083333"></rect>
                </g>
            </g>
        </g>
    </g>
</svg>