<?xml version="1.0" encoding="UTF-8"?>
<svg width="200px" height="150px" viewBox="0 0 200 150" version="1.1" xmlns="http://www.w3.org/2000/svg" xmlns:xlink="http://www.w3.org/1999/xlink">
    <!-- Generator: Sketch 49.2 (51160) - http://www.bohemiancoding.com/sketch -->
    <title>Group 18</title>
    <desc>Created with Sketch.</desc>
    <defs></defs>
    <g id="Page-1" stroke="none" stroke-width="1" fill="none" fill-rule="evenodd">
        <g id="Desktop-HD" transform="translate(-890.000000, -1704.000000)">
            <g id="Group-2-Copy-3" transform="translate(780.000000, 1549.000000)">
                <g id="Group-18" transform="translate(110.000000, 155.000000)">
                    <g id="Group-19">
                        <g id="Group-21">
                            <rect id="Rectangle-6" fill="#D2D9E8" x="0" y="0" width="200" height="14" rx="7"></rect>
                            <rect id="Rectangle-6" fill="#B8C4DB" x="0" y="0" width="80" height="14" rx="7"></rect>
                        </g>
                        <g id="Group-23" transform="translate(0.000000, 102.000000)">
                            <rect id="Rectangle-6" fill="#D2D9E8" x="0" y="0" width="200" height="14" rx="7"></rect>
                            <rect id="Rectangle-6-Copy" fill="#B8C4DB" x="0" y="0" width="60" height="14" rx="7"></rect>
                        </g>
                        <g id="Group-20" transform="translate(0.000000, 34.000000)">
                            <rect id="Rectangle-6" fill="#D2D9E8" x="0" y="0" width="200" height="14" rx="7"></rect>
                            <rect id="Rectangle-6-Copy-3" fill="#B8C4DB" x="0" y="0" width="50" height="14" rx="7"></rect>
                        </g>
                        <g id="Group-22" transform="translate(0.000000, 68.000000)">
                            <rect id="Rectangle-6" fill="#D2D9E8" x="0" y="0" width="200" height="14" rx="7"></rect>
                            <rect id="Rectangle-6-Copy-2" fill="#B8C4DB" x="0" y="0" width="100" height="14" rx="7"></rect>
                        </g>
                        <g id="Group-24" transform="translate(0.000000, 136.000000)">
                            <rect id="Rectangle-6" fill="#D2D9E8" x="0" y="0" width="200" height="14" rx="7"></rect>
                            <rect id="Rectangle-6-Copy-4" fill="#B8C4DB" x="0" y="0" width="30" height="14" rx="7"></rect>
                        </g>
                    </g>
                </g>
            </g>
        </g>
    </g>
</svg>