<?xml version="1.0" encoding="UTF-8"?>
<svg width="224px" height="248px" viewBox="0 0 224 248" version="1.1" xmlns="http://www.w3.org/2000/svg" xmlns:xlink="http://www.w3.org/1999/xlink">
    <!-- Generator: Sketch 49.2 (51160) - http://www.bohemiancoding.com/sketch -->
    <title>Group 10</title>
    <desc>Created with Sketch.</desc>
    <defs>
        <polygon id="path-1" points="183.282032 7.10542736e-15 223.282032 69.2820323 183.282032 138.564065 103.282032 138.564065 63.2820323 69.2820323 103.282032 0"></polygon>
        <polygon id="path-2" points="150.282032 57 190.282032 126.282032 150.282032 195.564065 70.2820323 195.564065 30.2820323 126.282032 70.2820323 57"></polygon>
        <polygon id="path-3" points="120.282032 109 160.282032 178.282032 120.282032 247.564065 40.2820323 247.564065 0.282032303 178.282032 40.2820323 109"></polygon>
    </defs>
    <g id="Page-1" stroke="none" stroke-width="1" fill="none" fill-rule="evenodd">
        <g id="Desktop-HD" transform="translate(-880.000000, -1026.000000)">
            <g id="Group-2-Copy" transform="translate(780.000000, 922.000000)">
                <g id="Group-10" transform="translate(100.000000, 104.000000)">
                    <g id="Polygon-Copy-2">
                        <use fill-opacity="0" fill="#FFFFFF" fill-rule="evenodd" xlink:href="#path-1"></use>
                        <path stroke-opacity="0.05" stroke="#111111" stroke-width="20" d="M177.50853,10 L109.055535,10 L74.8290377,69.2820323 L109.055535,128.564065 L177.50853,128.564065 L211.735027,69.2820323 L177.50853,10 Z"></path>
                    </g>
                    <g id="Polygon-Copy">
                        <use fill-opacity="0" fill="#FFFFFF" fill-rule="evenodd" xlink:href="#path-2"></use>
                        <path stroke="#E6D2AF" stroke-width="20" d="M144.50853,67 L76.055535,67 L41.8290377,126.282032 L76.055535,185.564065 L144.50853,185.564065 L178.735027,126.282032 L144.50853,67 Z"></path>
                    </g>
                    <g id="Polygon">
                        <use fill-opacity="0" fill="#FFFFFF" fill-rule="evenodd" xlink:href="#path-3"></use>
                        <path stroke="#D9C6A6" stroke-width="20" d="M114.50853,119 L46.055535,119 L11.8290377,178.282032 L46.055535,237.564065 L114.50853,237.564065 L148.735027,178.282032 L114.50853,119 Z"></path>
                    </g>
                </g>
            </g>
        </g>
    </g>
</svg>