<?xml version="1.0" encoding="UTF-8" standalone="no"?>
<svg width="180.246014px" height="166.085542px" viewBox="0 0 180.246014 166.085542" version="1.1" xmlns="http://www.w3.org/2000/svg" xmlns:xlink="http://www.w3.org/1999/xlink" xmlns:sketch="http://www.bohemiancoding.com/sketch/ns">
    <title>logo</title>
    <description>Created with Sketch (http://www.bohemiancoding.com/sketch)</description>
    <defs></defs>
    <g id="Page-1" stroke="none" stroke-width="1" fill="none" fill-rule="evenodd" sketch:type="MSPage">
        <path d="M5.70277778,38.0638889 L72.6166667,0.216666667 L79.8833333,5.06111111 L72.3138889,67.7361111 L85.9388889,61.6805556 L81.0944444,24.7416667 L90.7833333,20.8055556 L126.813889,55.625 L102.288889,68.0388889 L170.716667,65.9194444 L180.405556,76.8194444 L110.766667,163.413889 L100.169444,159.175 L88.0583333,75.6083333 L70.8,83.7833333 L60.5055556,165.836111 L0.252777778,97.4083333 L53.8444444,75.0027778 L62.3222222,24.1361111 L14.4833333,51.9916667 L5.70277778,38.0638889 Z M28.7138889,104.372222 L46.275,120.419444 L50.2111111,93.4722222 L28.7138889,104.372222 Z M106.527778,86.2055556 L115.308333,126.172222 L147.705556,83.4805556 L106.527778,86.2055556 Z M98.6555556,56.2305556 L96.2333333,45.3305556 L106.225,53.5055556 L98.6555556,56.2305556 Z M98.6555556,56.2305556" id="Path-1" fill="#222222" sketch:type="MSShapeGroup"></path>
    </g>
</svg>