<?xml version="1.0" encoding="UTF-8"?>
<svg width="168px" height="107px" viewBox="0 0 168 107" version="1.1" xmlns="http://www.w3.org/2000/svg" xmlns:xlink="http://www.w3.org/1999/xlink">
    <!-- Generator: Sketch 49.2 (51160) - http://www.bohemiancoding.com/sketch -->
    <title>Group 19</title>
    <desc>Created with Sketch.</desc>
    <defs></defs>
    <g id="Page-1" stroke="none" stroke-width="1" fill="none" fill-rule="evenodd">
        <g id="Group-2-Copy-8" transform="translate(-126.000000, -175.000000)">
            <g id="Group-19" transform="translate(126.000000, 175.000000)">
                <path d="M62.5820312,46.484375 C47.041589,35.6705188 39.2714844,23.711003 39.2714844,10.6054688 C39.2714844,-1.42584141 43.6757372,-11.2011343 52.484375,-18.7207031 C61.2930128,-26.240272 72.7870385,-30 86.9667969,-30 C100.072331,-30 110.689087,-26.8131829 118.817383,-20.4394531 C126.945679,-14.0657233 131.009766,-5.79432168 131.009766,4.375 C131.009766,19.7722124 121.127052,33.8085304 101.361328,46.484375 C125.352333,58.2292254 137.347656,73.3755583 137.347656,91.9238281 C137.347656,105.244207 132.316782,116.093708 122.254883,124.472656 C112.192984,132.851604 99.2129701,137.041016 83.3144531,137.041016 C67.7023959,137.041016 55.0804518,133.084349 45.4482422,125.170898 C35.8160326,117.257447 31,106.855533 31,93.9648437 C31,74.9152693 41.5272385,59.0886047 62.5820312,46.484375 Z M89.5449219,39.8242188 C104.369215,30.0845867 111.78125,19.2350858 111.78125,7.27539062 C111.78125,0.90166084 109.310572,-4.23663413 104.369141,-8.13964844 C99.4277097,-12.0426627 92.9108478,-13.9941406 84.8183594,-13.9941406 C77.0123308,-13.9941406 70.6745035,-12.0784697 65.8046875,-8.24707031 C60.9348715,-4.41567095 58.5,0.543589355 58.5,6.63085938 C58.5,12.5748995 60.7021264,17.8922292 65.1064453,22.5830078 C69.5107642,27.2737865 77.6568416,33.0207993 89.5449219,39.8242188 Z M74.0761719,55.078125 C72.2527213,56.4878515 70.5546818,57.8590503 68.9820515,59.1917231 C63.2047511,64.0875027 59.1199417,68.4633458 56.7275391,72.3193359 C53.6839041,77.2249594 52.1621094,83.3300416 52.1621094,90.6347656 C52.1621094,99.7298632 55.0982779,107.088188 60.9707031,112.709961 C66.8431283,118.331734 74.577426,121.142578 84.1738281,121.142578 C93.4121556,121.142578 100.949515,118.743514 106.786133,113.945312 C112.622751,109.147111 115.541016,102.916705 115.541016,95.2539062 C115.541016,89.0950213 113.732765,83.8851125 110.116211,79.6240234 C106.499656,75.3629344 99.4994009,70.1530256 89.1152344,63.9941406 L74.0761719,55.078125 Z" id="8" fill="#B5DAEC" transform="translate(84.173828, 53.520508) rotate(-270.000000) translate(-84.173828, -53.520508) "></path>
                <g id="Group-18" transform="translate(78.000000, 26.000000)">
                    <g id="Group-16">
                        <rect id="Rectangle-10" fill="#B5DAEC" x="13" y="2" width="5" height="4"></rect>
                        <path d="M2.60473685,20.8112237 C5.30861662,16.4882586 7.44439417,13.2368567 9.01206947,11.0570181 C10.5797448,8.87717946 13.1205909,5.6257776 16.6346077,1.3028125 L10.0421323,0.105898211 C7.91014791,2.55507325 6.21325052,4.59132115 4.95144017,6.2146419 C3.68962982,7.83796265 2.07565099,9.98124428 0.109503668,12.6444868 L2.60473685,20.8112237 Z" id="Path-3" fill="#D8F2FF"></path>
                    </g>
                    <path d="M10.5183953,49.8627631 C12.9924108,45.1352569 14.8639285,41.6300403 16.1329484,39.3471131 C17.4019683,37.0641859 19.4152933,33.5806917 22.1729234,28.8966304 L24.5562172,35.2605977 C21.8891337,40.3677745 19.9837533,44.0667574 18.8400759,46.3575465 C17.6963985,48.6483355 16.4824487,51.19738 15.1982263,54.00468 L10.5183953,49.8627631 Z" id="Path-4" fill="#D8F2FF"></path>
                </g>
            </g>
        </g>
    </g>
</svg>