<?xml version="1.0" encoding="UTF-8"?>
<svg width="163px" height="167px" viewBox="0 0 163 167" version="1.1" xmlns="http://www.w3.org/2000/svg" xmlns:xlink="http://www.w3.org/1999/xlink">
    <!-- Generator: Sketch 49.2 (51160) - http://www.bohemiancoding.com/sketch -->
    <title>Group 20</title>
    <desc>Created with Sketch.</desc>
    <defs></defs>
    <g id="Page-1" stroke="none" stroke-width="1" fill="none" fill-rule="evenodd">
        <g id="Group-2-Copy-9" transform="translate(-128.000000, -157.000000)">
            <g id="Group-20" transform="translate(128.000000, 157.000000)">
                <path d="M39.4,166.82 C33.3866366,166.82 28.0333568,165.756677 23.34,163.63 C18.6466432,161.503323 14.6133502,158.643351 11.24,155.05 C7.8666498,151.456649 5.3000088,147.166692 3.54,142.18 C1.7799912,137.193308 0.9,131.840029 0.9,126.12 C0.9,120.399971 1.7433249,115.083358 3.43,110.17 C5.1166751,105.256642 7.5733172,101.003351 10.8,97.41 C14.0266828,93.8166487 17.9866432,90.9566773 22.68,88.83 C27.3733568,86.7033227 32.653304,85.64 38.52,85.64 C43.3600242,85.64 47.7966465,86.373326 51.83,87.84 C55.8633535,89.306674 59.6033161,91.2499879 63.05,93.67 C66.4966839,96.0900121 69.7233183,98.8766509 72.73,102.03 C75.7366817,105.183349 78.706652,108.519982 81.64,112.04 C84.4266806,108.66665 87.3233183,105.366683 90.33,102.14 C93.3366817,98.9133172 96.5633161,96.0900121 100.01,93.67 C103.456684,91.2499879 107.196647,89.306674 111.23,87.84 C115.263354,86.373326 119.626643,85.64 124.32,85.64 C130.186696,85.64 135.466643,86.6666564 140.16,88.72 C144.853357,90.7733436 148.813317,93.5966487 152.04,97.19 C155.266683,100.783351 157.759991,104.999976 159.52,109.84 C161.280009,114.680024 162.16,119.959971 162.16,125.68 C162.16,131.400029 161.280009,136.753308 159.52,141.74 C157.759991,146.726692 155.266683,151.089981 152.04,154.83 C148.813317,158.570019 144.816691,161.503323 140.05,163.63 C135.28331,165.756677 129.966696,166.82 124.1,166.82 C119.553311,166.82 115.30002,166.12334 111.34,164.73 C107.37998,163.33666 103.676684,161.503345 100.23,159.23 C96.7833161,156.956655 93.5200154,154.316682 90.44,151.31 C87.3599846,148.303318 84.4266806,145.186683 81.64,141.96 C78.5599846,145.186683 75.553348,148.303318 72.62,151.31 C69.686652,154.316682 66.5700165,156.956655 63.27,159.23 C59.9699835,161.503345 56.3766861,163.33666 52.49,164.73 C48.6033139,166.12334 44.2400242,166.82 39.4,166.82 Z M39.18,144.6 C41.9666806,144.6 44.7533194,144.050005 47.54,142.95 C50.3266806,141.849994 52.9666542,140.456675 55.46,138.77 C57.9533458,137.083325 60.299989,135.176677 62.5,133.05 C64.700011,130.923323 66.6799912,128.833344 68.44,126.78 C66.6799912,124.873324 64.6266784,122.783345 62.28,120.51 C59.9333216,118.236655 57.4766795,116.146676 54.91,114.24 C52.3433205,112.333324 49.6666806,110.756673 46.88,109.51 C44.0933194,108.263327 41.3066806,107.64 38.52,107.64 C33.386641,107.64 29.3166817,109.583314 26.31,113.47 C23.3033183,117.356686 21.8,121.719976 21.8,126.56 C21.8,131.840026 23.3399846,136.16665 26.42,139.54 C29.5000154,142.91335 33.7533062,144.6 39.18,144.6 Z M124.54,144.6 C129.966694,144.6 134.146652,142.840018 137.08,139.32 C140.013348,135.799982 141.48,131.473359 141.48,126.34 C141.48,121.206641 139.903349,116.806685 136.75,113.14 C133.596651,109.473315 129.306694,107.64 123.88,107.64 C120.946652,107.64 118.123347,108.263327 115.41,109.51 C112.696653,110.756673 110.130012,112.333324 107.71,114.24 C105.289988,116.146676 102.980011,118.236655 100.78,120.51 C98.579989,122.783345 96.6000088,124.873324 94.84,126.78 C96.7466762,128.980011 98.799989,131.143323 101,133.27 C103.200011,135.396677 105.546654,137.303325 108.04,138.99 C110.533346,140.676675 113.136653,142.033328 115.85,143.06 C118.563347,144.086672 121.459985,144.6 124.54,144.6 Z" id="∞-copy-2" fill="#C2E8FB"></path>
                <path d="M39.4,124.82 C33.3866366,124.82 28.0333568,123.756677 23.34,121.63 C18.6466432,119.503323 14.6133502,116.643351 11.24,113.05 C7.8666498,109.456649 5.3000088,105.166692 3.54,100.18 C1.7799912,95.1933084 0.9,89.8400286 0.9,84.12 C0.9,78.3999714 1.7433249,73.0833579 3.43,68.17 C5.1166751,63.2566421 7.5733172,59.0033513 10.8,55.41 C14.0266828,51.8166487 17.9866432,48.9566773 22.68,46.83 C27.3733568,44.7033227 32.653304,43.64 38.52,43.64 C43.3600242,43.64 47.7966465,44.373326 51.83,45.84 C55.8633535,47.306674 59.6033161,49.2499879 63.05,51.67 C66.4966839,54.0900121 69.7233183,56.8766509 72.73,60.03 C75.7366817,63.1833491 78.706652,66.5199824 81.64,70.04 C84.4266806,66.6666498 87.3233183,63.3666828 90.33,60.14 C93.3366817,56.9133172 96.5633161,54.0900121 100.01,51.67 C103.456684,49.2499879 107.196647,47.306674 111.23,45.84 C115.263354,44.373326 119.626643,43.64 124.32,43.64 C130.186696,43.64 135.466643,44.6666564 140.16,46.72 C144.853357,48.7733436 148.813317,51.5966487 152.04,55.19 C155.266683,58.7833513 157.759991,62.9999758 159.52,67.84 C161.280009,72.6800242 162.16,77.9599714 162.16,83.68 C162.16,89.4000286 161.280009,94.7533084 159.52,99.74 C157.759991,104.726692 155.266683,109.089981 152.04,112.83 C148.813317,116.570019 144.816691,119.503323 140.05,121.63 C135.28331,123.756677 129.966696,124.82 124.1,124.82 C119.553311,124.82 115.30002,124.12334 111.34,122.73 C107.37998,121.33666 103.676684,119.503345 100.23,117.23 C96.7833161,114.956655 93.5200154,112.316682 90.44,109.31 C87.3599846,106.303318 84.4266806,103.186683 81.64,99.96 C78.5599846,103.186683 75.553348,106.303318 72.62,109.31 C69.686652,112.316682 66.5700165,114.956655 63.27,117.23 C59.9699835,119.503345 56.3766861,121.33666 52.49,122.73 C48.6033139,124.12334 44.2400242,124.82 39.4,124.82 Z M39.18,102.6 C41.9666806,102.6 44.7533194,102.050005 47.54,100.95 C50.3266806,99.8499945 52.9666542,98.4566751 55.46,96.77 C57.9533458,95.0833249 60.299989,93.1766773 62.5,91.05 C64.700011,88.9233227 66.6799912,86.8333436 68.44,84.78 C66.6799912,82.8733238 64.6266784,80.7833447 62.28,78.51 C59.9333216,76.2366553 57.4766795,74.1466762 54.91,72.24 C52.3433205,70.3333238 49.6666806,68.7566729 46.88,67.51 C44.0933194,66.2633271 41.3066806,65.64 38.52,65.64 C33.386641,65.64 29.3166817,67.5833139 26.31,71.47 C23.3033183,75.3566861 21.8,79.7199758 21.8,84.56 C21.8,89.8400264 23.3399846,94.1666498 26.42,97.54 C29.5000154,100.91335 33.7533062,102.6 39.18,102.6 Z M124.54,102.6 C129.966694,102.6 134.146652,100.840018 137.08,97.32 C140.013348,93.7999824 141.48,89.473359 141.48,84.34 C141.48,79.206641 139.903349,74.806685 136.75,71.14 C133.596651,67.473315 129.306694,65.64 123.88,65.64 C120.946652,65.64 118.123347,66.2633271 115.41,67.51 C112.696653,68.7566729 110.130012,70.3333238 107.71,72.24 C105.289988,74.1466762 102.980011,76.2366553 100.78,78.51 C98.579989,80.7833447 96.6000088,82.8733238 94.84,84.78 C96.7466762,86.980011 98.799989,89.1433227 101,91.27 C103.200011,93.3966773 105.546654,95.3033249 108.04,96.99 C110.533346,98.6766751 113.136653,100.033328 115.85,101.06 C118.563347,102.086672 121.459985,102.6 124.54,102.6 Z" id="∞-copy" fill="#A2D9F5"></path>
                <path d="M39.4,81.82 C33.3866366,81.82 28.0333568,80.7566773 23.34,78.63 C18.6466432,76.5033227 14.6133502,73.6433513 11.24,70.05 C7.8666498,66.4566487 5.3000088,62.1666916 3.54,57.18 C1.7799912,52.1933084 0.9,46.8400286 0.9,41.12 C0.9,35.3999714 1.7433249,30.0833579 3.43,25.17 C5.1166751,20.2566421 7.5733172,16.0033513 10.8,12.41 C14.0266828,8.8166487 17.9866432,5.9566773 22.68,3.83 C27.3733568,1.7033227 32.653304,0.64 38.52,0.64 C43.3600242,0.64 47.7966465,1.373326 51.83,2.84 C55.8633535,4.306674 59.6033161,6.2499879 63.05,8.67 C66.4966839,11.0900121 69.7233183,13.8766509 72.73,17.03 C75.7366817,20.1833491 78.706652,23.5199824 81.64,27.04 C84.4266806,23.6666498 87.3233183,20.3666828 90.33,17.14 C93.3366817,13.9133172 96.5633161,11.0900121 100.01,8.67 C103.456684,6.2499879 107.196647,4.306674 111.23,2.84 C115.263354,1.373326 119.626643,0.64 124.32,0.64 C130.186696,0.64 135.466643,1.6666564 140.16,3.72 C144.853357,5.7733436 148.813317,8.5966487 152.04,12.19 C155.266683,15.7833513 157.759991,19.9999758 159.52,24.84 C161.280009,29.6800242 162.16,34.9599714 162.16,40.68 C162.16,46.4000286 161.280009,51.7533084 159.52,56.74 C157.759991,61.7266916 155.266683,66.0899813 152.04,69.83 C148.813317,73.5700187 144.816691,76.5033227 140.05,78.63 C135.28331,80.7566773 129.966696,81.82 124.1,81.82 C119.553311,81.82 115.30002,81.1233403 111.34,79.73 C107.37998,78.3366597 103.676684,76.5033447 100.23,74.23 C96.7833161,71.9566553 93.5200154,69.3166817 90.44,66.31 C87.3599846,63.3033183 84.4266806,60.1866828 81.64,56.96 C78.5599846,60.1866828 75.553348,63.3033183 72.62,66.31 C69.686652,69.3166817 66.5700165,71.9566553 63.27,74.23 C59.9699835,76.5033447 56.3766861,78.3366597 52.49,79.73 C48.6033139,81.1233403 44.2400242,81.82 39.4,81.82 Z M39.18,59.6 C41.9666806,59.6 44.7533194,59.0500055 47.54,57.95 C50.3266806,56.8499945 52.9666542,55.4566751 55.46,53.77 C57.9533458,52.0833249 60.299989,50.1766773 62.5,48.05 C64.700011,45.9233227 66.6799912,43.8333436 68.44,41.78 C66.6799912,39.8733238 64.6266784,37.7833447 62.28,35.51 C59.9333216,33.2366553 57.4766795,31.1466762 54.91,29.24 C52.3433205,27.3333238 49.6666806,25.7566729 46.88,24.51 C44.0933194,23.2633271 41.3066806,22.64 38.52,22.64 C33.386641,22.64 29.3166817,24.5833139 26.31,28.47 C23.3033183,32.3566861 21.8,36.7199758 21.8,41.56 C21.8,46.8400264 23.3399846,51.1666498 26.42,54.54 C29.5000154,57.9133502 33.7533062,59.6 39.18,59.6 Z M124.54,59.6 C129.966694,59.6 134.146652,57.8400176 137.08,54.32 C140.013348,50.7999824 141.48,46.473359 141.48,41.34 C141.48,36.206641 139.903349,31.806685 136.75,28.14 C133.596651,24.473315 129.306694,22.64 123.88,22.64 C120.946652,22.64 118.123347,23.2633271 115.41,24.51 C112.696653,25.7566729 110.130012,27.3333238 107.71,29.24 C105.289988,31.1466762 102.980011,33.2366553 100.78,35.51 C98.579989,37.7833447 96.6000088,39.8733238 94.84,41.78 C96.7466762,43.980011 98.799989,46.1433227 101,48.27 C103.200011,50.3966773 105.546654,52.3033249 108.04,53.99 C110.533346,55.6766751 113.136653,57.0333282 115.85,58.06 C118.563347,59.0866718 121.459985,59.6 124.54,59.6 Z" id="∞" fill="#7FCAEF"></path>
            </g>
        </g>
    </g>
</svg>